<?xml version="1.0" encoding="UTF-8"?>
<svg id="Layer_1" xmlns="http://www.w3.org/2000/svg" version="1.1" xmlns:xlink="http://www.w3.org/1999/xlink" viewBox="0 0 174.83 30.26">
  <!-- Generator: Adobe Illustrator 29.5.1, SVG Export Plug-In . SVG Version: 2.1.0 Build 141)  -->
  <defs>
    <style>
      .st0 {
        fill: url(#linear-gradient2);
      }

      .st1 {
        fill: url(#linear-gradient1);
      }

      .st2 {
        fill: url(#linear-gradient4);
      }

      .st3 {
        fill: url(#linear-gradient3);
      }

      .st4 {
        fill: #203656;
      }

      .st5 {
        fill: url(#linear-gradient);
      }
    </style>
    <linearGradient id="linear-gradient" x1="74.26" y1="16.67" x2="171.65" y2="15.93" gradientTransform="translate(0 31.8) scale(1 -1)" gradientUnits="userSpaceOnUse">
      <stop offset="0" stop-color="#fe5371"/>
      <stop offset="1" stop-color="#ffa086"/>
    </linearGradient>
    <linearGradient id="linear-gradient1" x1="74.26" y1="17.22" x2="171.65" y2="16.48" gradientTransform="translate(0 31.8) scale(1 -1)" gradientUnits="userSpaceOnUse">
      <stop offset="0" stop-color="#fe5371"/>
      <stop offset="1" stop-color="#ffa086"/>
    </linearGradient>
    <linearGradient id="linear-gradient2" x1="74.24" y1="13.97" x2="171.62" y2="13.22" gradientTransform="translate(0 31.8) scale(1 -1)" gradientUnits="userSpaceOnUse">
      <stop offset="0" stop-color="#fe5371"/>
      <stop offset="1" stop-color="#ffa086"/>
    </linearGradient>
    <linearGradient id="linear-gradient3" x1="74.25" y1="13.88" x2="171.63" y2="13.13" gradientTransform="translate(0 31.8) scale(1 -1)" gradientUnits="userSpaceOnUse">
      <stop offset="0" stop-color="#fe5371"/>
      <stop offset="1" stop-color="#ffa086"/>
    </linearGradient>
    <linearGradient id="linear-gradient4" x1="73.2" y1="7.21" x2="170.58" y2="6.46" gradientTransform="translate(0 31.8) scale(1 -1)" gradientUnits="userSpaceOnUse">
      <stop offset="0" stop-color="#fe5371"/>
      <stop offset="1" stop-color="#ffa086"/>
    </linearGradient>
  </defs>
  <g>
    <path class="st4" d="M23.63,29.6l-1.45-3.31s-.07.07-.1.09c-2.32,2.02-5.3,3.23-8.53,3.23C6.07,29.62,0,23.16,0,15.2S6.07.78,13.55.78c5.79,0,10.73,3.88,12.67,9.31h-5.26c-1.55-2.71-4.28-4.52-7.41-4.52-4.83,0-8.75,4.32-8.75,9.63s3.93,9.62,8.75,9.62c2.56,0,4.87-1.21,6.45-3.15.03-.04.06-.09.09-.13l-2.77-6.31h5.33l6.31,14.37h-5.33Z"/>
    <path class="st4" d="M33.41,20.27c.58,2.8,2.83,4.88,5.52,4.88,2.01,0,3.79-1.17,4.79-2.93h4.98c-1.35,4.37-5.21,7.53-9.76,7.53-5.67,0-10.27-4.88-10.27-10.9s4.6-10.9,10.27-10.9c4.55,0,8.43,3.16,9.76,7.53.33,1.06.5,2.19.5,3.36,0,.49-.03.96-.09,1.43h-15.7ZM43.72,15.47c-.99-1.77-2.76-2.94-4.79-2.94s-3.8,1.17-4.79,2.94h9.58Z"/>
    <path class="st4" d="M71.97,18.61v10.99h-4.79v-10.99c0-3.42-2.5-6.21-5.58-6.21s-5.58,2.79-5.58,6.21v11.03h-4.79v-11.03c0-6.07,4.65-11,10.37-11s10.37,4.93,10.37,11h0Z"/>
    <path class="st5" d="M74.29,29.64v-12.77l25.95-9.55v-.33h-25.95V.82h26.77v12.36l-25.95,9.96v.33h26.36v6.18s-27.18,0-27.18,0Z"/>
    <path class="st1" d="M108.31,6.38h-1.36c-.69,0-1.28-.25-1.77-.74-.49-.49-.74-1.1-.74-1.81v-1.32c0-.68.25-1.27.74-1.77.49-.49,1.08-.74,1.77-.74h1.36c.69,0,1.28.25,1.77.74.49.49.74,1.08.74,1.77v1.32c0,.71-.24,1.32-.74,1.81s-1.08.74-1.77.74ZM110.65,29.64h-6.09V7.41h6.09v22.24Z"/>
    <path class="st0" d="M129.56,6.78c1.05,0,2.08.12,3.11.37,1.03.24,1.96.65,2.78,1.21.82.56,1.49,1.31,2,2.22s.76,2.05.76,3.4v15.65h-6.18v-11.53c0-1.13-.11-2.1-.31-2.92s-.52-1.5-.92-2.04c-.41-.53-.93-.93-1.55-1.2s-1.34-.39-2.16-.39c-.72,0-1.33.06-1.85.18-.52.12-.97.29-1.36.52-.38.22-.71.47-.97.74s-.47.56-.64.86c-.17.31-.29.61-.37.91-.08.31-.14.59-.17.86v14h-6.18V7.41h6.18l-.66,5.6.29.29c.13-1.07.42-2.01.86-2.82.44-.81,1.01-1.49,1.71-2.04.7-.55,1.52-.96,2.47-1.23.95-.27,2-.41,3.15-.41h0Z"/>
    <path class="st3" d="M157.22,7.36c1.33.38,2.51.94,3.52,1.67s1.84,1.63,2.45,2.72c.62,1.08.93,2.34.93,3.76v4.33h-16.39v.91c0,.52.12,1.04.37,1.56.25.52.6.99,1.07,1.4.47.41,1.03.75,1.69,1.01.66.26,1.4.39,2.22.39,1.13,0,2.03-.15,2.72-.46.68-.3,1.22-.66,1.61-1.07.38-.41.65-.82.78-1.23s.22-.73.25-.95h5.64c-.22,2.99-1.2,5.22-2.92,6.67-1.73,1.46-4.42,2.19-8.07,2.19-1.18,0-2.44-.18-3.77-.53s-2.57-.92-3.71-1.68c-1.14-.77-2.08-1.75-2.82-2.95-.74-1.2-1.11-2.64-1.11-4.34v-3.99c0-1.98.35-3.61,1.05-4.9.7-1.29,1.61-2.31,2.72-3.05s2.34-1.26,3.69-1.56c1.35-.3,2.66-.46,3.95-.46,1.43,0,2.81.19,4.14.58h-.02ZM147.72,15.51h10.79c0-.22-.08-.53-.24-.95-.17-.41-.44-.81-.85-1.2-.4-.38-.95-.72-1.65-1.01-.7-.29-1.6-.43-2.7-.43-.91,0-1.7.12-2.37.37-.67.24-1.23.56-1.67.92-.44.37-.77.76-.99,1.16-.22.39-.33.76-.33,1.09v.04Z"/>
  </g>
  <circle class="st2" cx="170.53" cy="25.34" r="4.3"/>
</svg>